<?xml version="1.0" encoding="UTF-8" standalone="no"?>
<svg
   xmlns:dc="http://purl.org/dc/elements/1.1/"
   xmlns:cc="http://creativecommons.org/ns#"
   xmlns:rdf="http://www.w3.org/1999/02/22-rdf-syntax-ns#"
   xmlns:svg="http://www.w3.org/2000/svg"
   xmlns="http://www.w3.org/2000/svg"
   xmlns:sodipodi="http://sodipodi.sourceforge.net/DTD/sodipodi-0.dtd"
   xmlns:inkscape="http://www.inkscape.org/namespaces/inkscape"
   width="256"
   height="256"
   viewBox="0 0 67.733332 67.733332"
   version="1.1"
   id="svg8"
   inkscape:version="1.0.1 (c497b03c, 2020-09-10)"
   sodipodi:docname="favicon.svg"
   inkscape:export-filename="/Users/xavmac/Documents/keyword-allintitle-results/assets/images/favicon-io/favicon-16x16.png"
   inkscape:export-xdpi="6.0000005"
   inkscape:export-ydpi="6.0000005">
  <defs
     id="defs2">
    <marker
       style="overflow:visible"
       id="Arrow1Lend"
       refX="0"
       refY="0"
       orient="auto"
       inkscape:stockid="Arrow1Lend"
       inkscape:isstock="true">
      <path
         transform="matrix(-0.8,0,0,-0.8,-10,0)"
         style="fill:#000000;fill-opacity:1;fill-rule:evenodd;stroke:#000000;stroke-width:1pt;stroke-opacity:1"
         d="M 0,0 5,-5 -12.5,0 5,5 Z"
         id="path840" />
    </marker>
  </defs>
  <sodipodi:namedview
     id="base"
     pagecolor="#ffffff"
     bordercolor="#666666"
     borderopacity="1.0"
     inkscape:pageopacity="0.0"
     inkscape:pageshadow="2"
     inkscape:zoom="0.95717476"
     inkscape:cx="501.59947"
     inkscape:cy="364.94662"
     inkscape:document-units="mm"
     inkscape:current-layer="layer1"
     inkscape:document-rotation="0"
     showgrid="false"
     units="px"
     inkscape:window-width="1680"
     inkscape:window-height="1050"
     inkscape:window-x="0"
     inkscape:window-y="0"
     inkscape:window-maximized="0" />
  <metadata
     id="metadata5">
    <rdf:RDF>
      <cc:Work
         rdf:about="">
        <dc:format>image/svg+xml</dc:format>
        <dc:type
           rdf:resource="http://purl.org/dc/dcmitype/StillImage" />
        <dc:title></dc:title>
      </cc:Work>
    </rdf:RDF>
  </metadata>
  <g
     inkscape:label="Layer 1"
     inkscape:groupmode="layer"
     id="layer1">
    <g
       id="g1631"
       style="stroke:#000000;stroke-opacity:1;stroke-width:6;stroke-miterlimit:4;stroke-dasharray:none">
      <path
         style="opacity:1;fill:none;stroke:#000000;stroke-width:8;stroke-linecap:round;stroke-miterlimit:4;stroke-dasharray:none;stroke-dashoffset:0;stroke-opacity:1;stop-color:#000000"
         id="path12"
         sodipodi:type="arc"
         sodipodi:cx="36.827396"
         sodipodi:cy="36.132626"
         sodipodi:rx="18.928726"
         sodipodi:ry="18.928726"
         sodipodi:start="0"
         sodipodi:end="5.2862121"
         sodipodi:arc-type="arc"
         d="M 55.756123,36.132626 A 18.928726,18.928726 0 0 1 41.496559,54.476442 18.928726,18.928726 0 0 1 20.202161,45.18239 18.928726,18.928726 0 0 1 23.956317,22.253433 18.928726,18.928726 0 0 1 47.102795,20.23568"
         sodipodi:open="true"
         transform="rotate(-6.5323615)" />
      <path
         style="fill:none;stroke:#000000;stroke-width:8;stroke-linecap:round;stroke-linejoin:miter;stroke-miterlimit:4;stroke-dasharray:none;stroke-opacity:1"
         d="M 8.3271535,63.022393 22.908651,48.440907"
         id="path1565" />
      <path
         style="fill:none;stroke:#000000;stroke-width:8;stroke-linecap:round;stroke-linejoin:miter;stroke-miterlimit:4;stroke-dasharray:none;stroke-opacity:1"
         d="M 40.144171,22.04492 50.975746,15.810889"
         id="path1565-9" />
      <path
         style="fill:none;stroke:#000000;stroke-width:8;stroke-linecap:round;stroke-linejoin:miter;stroke-miterlimit:4;stroke-dasharray:none;stroke-opacity:1"
         d="M 44.277853,5.2598543 50.975746,15.810889"
         id="path1565-9-4"
         inkscape:transform-center-x="2.9779891"
         inkscape:transform-center-y="-5.0055672" />
    </g>
    <path
       style="color:#000000;font-style:normal;font-variant:normal;font-weight:normal;font-stretch:normal;font-size:medium;line-height:normal;font-family:sans-serif;font-variant-ligatures:normal;font-variant-position:normal;font-variant-caps:normal;font-variant-numeric:normal;font-variant-alternates:normal;font-variant-east-asian:normal;font-feature-settings:normal;font-variation-settings:normal;text-indent:0;text-align:start;text-decoration:none;text-decoration-line:none;text-decoration-style:solid;text-decoration-color:#000000;letter-spacing:normal;word-spacing:normal;text-transform:none;writing-mode:lr-tb;direction:ltr;text-orientation:mixed;dominant-baseline:auto;baseline-shift:baseline;text-anchor:start;white-space:normal;shape-padding:0;shape-margin:0;inline-size:0;clip-rule:nonzero;display:inline;overflow:visible;visibility:visible;opacity:1;isolation:auto;mix-blend-mode:normal;color-interpolation:sRGB;color-interpolation-filters:linearRGB;solid-color:#000000;solid-opacity:1;vector-effect:none;fill:#aaaaaa;fill-opacity:1;fill-rule:nonzero;stroke:#aaaaaa;stroke-width:5.544;stroke-linecap:round;stroke-linejoin:miter;stroke-miterlimit:4;stroke-dasharray:none;stroke-dashoffset:0;stroke-opacity:1;color-rendering:auto;image-rendering:auto;shape-rendering:auto;text-rendering:auto;enable-background:accumulate;stop-color:#000000;stop-opacity:1"
       d="m 157.21748,61.900309 v 5.29e-4 c -0.52195,0.003 -1.03246,0.153271 -1.47278,0.433568 -1.291,0.82075 -1.67306,2.532176 -0.85369,3.824054 l 2.25309,3.550171 c -1.43577,-0.232963 -2.8831,-0.321778 -4.32067,-0.265618 -5.88993,0.230098 -11.60887,2.848843 -15.64142,7.549412 -6.45209,7.520895 -6.98319,18.498222 -1.28623,26.606125 0.33591,0.47807 0.69022,0.93761 1.05834,1.38131 -0.3311,-0.1258 -0.68146,-0.19346 -1.0356,-0.19999 -0.83484,-0.0152 -1.63995,0.30979 -2.23035,0.90021 l -4.7439,4.7439 -0.82889,0.8294 -9.00927,9.00875 c -1.20138,1.201 -1.20138,3.14861 0,4.34961 1.201,1.20138 3.14861,1.20138 4.34961,0 l 8.45581,-8.45633 6.12417,-6.12573 c 0.8089,-0.80868 1.10211,-1.99947 0.7612,-3.09128 5.95283,5.58702 14.7072,7.45496 22.56658,4.46743 9.26263,-3.52094 14.97661,-12.907175 13.84928,-22.752101 -0.17446,-1.521304 -1.54936,-2.612985 -3.07061,-2.438096 -1.52039,0.174493 -2.61175,1.548056 -2.43809,3.068548 0.84209,7.354075 -3.39242,14.311489 -10.31152,16.941599 -6.91912,2.63012 -14.70502,0.24189 -18.9606,-5.81463 -4.25558,-6.056539 -3.86157,-14.189529 0.95808,-19.807578 4.1185,-4.800735 10.5433,-6.68351 16.46463,-5.080825 l -6.13916,3.534151 c -1.3268,0.763754 -1.78328,2.458463 -1.01958,3.785298 0.76376,1.326801 2.45847,1.783276 3.7853,1.019577 l 10.82983,-6.234245 c 0.004,-0.0026 0.009,-0.0052 0.0134,-0.0078 0.0163,-0.0095 0.0325,-0.01913 0.0486,-0.02894 0.004,-0.0028 0.009,-0.0055 0.0134,-0.0083 0.01,-0.0058 0.019,-0.01167 0.0284,-0.01757 0.006,-0.0041 0.0128,-0.0082 0.0191,-0.01241 0.002,-0.0016 0.005,-0.003 0.007,-0.0047 0.0177,-0.0117 0.0353,-0.02357 0.0527,-0.03566 0.0135,-0.0092 0.0269,-0.0185 0.0403,-0.02791 0.006,-0.0045 0.0124,-0.0089 0.0186,-0.01344 0.0132,-0.0095 0.0263,-0.01918 0.0393,-0.02894 0.006,-0.0046 0.0124,-0.0093 0.0186,-0.01394 0.013,-0.0099 0.026,-0.01987 0.0388,-0.02997 0.006,-0.0048 0.0121,-0.0096 0.0181,-0.01447 0.0127,-0.01024 0.0252,-0.02056 0.0377,-0.031 0.006,-0.005 0.0118,-0.01 0.0176,-0.01498 0.0178,-0.01511 0.0353,-0.03044 0.0527,-0.04599 l 0.002,-0.0011 c 0.0122,-0.01093 0.0242,-0.02193 0.0362,-0.03307 0.0176,-0.0163 0.035,-0.03285 0.0522,-0.04961 0.006,-0.0053 0.011,-0.01066 0.0165,-0.01603 0.004,-0.004 0.008,-0.0079 0.0114,-0.01188 0.0132,-0.01312 0.0263,-0.02641 0.0393,-0.03979 0.0166,-0.01736 0.033,-0.03493 0.0491,-0.05271 0.0155,-0.01704 0.0309,-0.03426 0.046,-0.05168 l 0.002,-0.0021 c 0.0106,-0.0123 0.0211,-0.02471 0.0315,-0.03721 0.005,-0.006 0.01,-0.01204 0.015,-0.0181 0.003,-0.0033 0.005,-0.0065 0.008,-0.0098 0.0124,-0.01537 0.0246,-0.03088 0.0367,-0.04651 0.0147,-0.01892 0.0292,-0.03805 0.0434,-0.05736 0.01,-0.01318 0.0195,-0.02646 0.0289,-0.03979 0.004,-0.0062 0.009,-0.01238 0.0129,-0.0186 l 0.001,-0.0016 c 0.0134,-0.01929 0.0265,-0.03876 0.0393,-0.05839 0.009,-0.01352 0.0181,-0.02714 0.0269,-0.04083 0.004,-0.0065 0.008,-0.01307 0.0124,-0.01963 0.003,-0.0055 0.007,-0.01101 0.01,-0.01654 0.009,-0.01506 0.0181,-0.03022 0.0269,-0.04547 0.0122,-0.02069 0.0246,-0.04153 0.0362,-0.06253 0.008,-0.01423 0.0157,-0.02853 0.0233,-0.04289 0.004,-0.0069 0.007,-0.01376 0.0108,-0.02066 0.002,-0.0038 0.004,-0.0076 0.006,-0.01138 0.009,-0.01749 0.0178,-0.03505 0.0263,-0.05271 0.007,-0.01474 0.0143,-0.02956 0.0212,-0.04444 l 5.3e-4,-0.0011 c 0.007,-0.01595 0.0146,-0.03197 0.0217,-0.04806 0.002,-0.0055 0.005,-0.01101 0.007,-0.01654 0.003,-0.0071 0.006,-0.0141 0.009,-0.02119 0.009,-0.02209 0.0186,-0.04432 0.0274,-0.06666 0.009,-0.02193 0.0168,-0.044 0.0248,-0.06615 l 5.3e-4,-0.0011 c 0.006,-0.01545 0.0111,-0.03096 0.0165,-0.04651 0.002,-0.0072 0.005,-0.01447 0.007,-0.0217 0.005,-0.01545 0.0101,-0.03096 0.015,-0.04651 0.002,-0.0074 0.005,-0.01479 0.007,-0.02223 0.005,-0.01564 0.009,-0.03132 0.0139,-0.04703 0.002,-0.0074 0.004,-0.01482 0.006,-0.02222 l 10e-4,-0.0047 c 0.006,-0.02146 0.0117,-0.043 0.0171,-0.0646 0.006,-0.02336 0.0113,-0.04678 0.0165,-0.07028 0.004,-0.01598 0.007,-0.03201 0.0104,-0.04806 7.9e-4,-0.0024 0.001,-0.0048 0.002,-0.0072 0.002,-0.01273 0.005,-0.02548 0.007,-0.03824 0.003,-0.01601 0.005,-0.03202 0.008,-0.04806 0.003,-0.01601 0.005,-0.03202 0.008,-0.04806 v -0.0011 c 0.002,-0.01754 0.005,-0.03512 0.007,-0.05271 10e-4,-0.0057 0.002,-0.01135 0.003,-0.01704 0.001,-0.0077 0.002,-0.0155 0.003,-0.02326 0.002,-0.01617 0.003,-0.03238 0.005,-0.04857 8e-4,-0.0076 0.001,-0.01516 0.002,-0.02273 0.001,-0.01635 0.003,-0.03271 0.004,-0.04909 7.9e-4,-0.0076 0.002,-0.01516 0.003,-0.02273 0.001,-0.01635 0.002,-0.03272 0.003,-0.04909 v -0.0052 c 0.001,-0.0222 0.002,-0.04443 0.002,-0.06666 2.6e-4,-0.01585 5.3e-4,-0.03169 5.3e-4,-0.04754 -4e-5,-0.01585 -2e-4,-0.03169 -5.3e-4,-0.04754 -2.7e-4,-0.02394 -10e-4,-0.0479 -0.002,-0.07183 -7.9e-4,-0.02085 -0.002,-0.0417 -0.003,-0.06253 -0.001,-0.01672 -0.003,-0.03343 -0.004,-0.05013 -1.7e-4,-0.0028 -2.6e-4,-0.006 -5.3e-4,-0.0088 -5.3e-4,-0.0078 -0.002,-0.01551 -0.003,-0.02326 -1.7e-4,-0.0024 -2.5e-4,-0.0043 -5.3e-4,-0.0067 -0.002,-0.02138 -0.004,-0.04275 -0.007,-0.06408 -0.002,-0.01622 -0.004,-0.03241 -0.006,-0.04857 -2.6e-4,-0.0021 -7.9e-4,-0.0041 -10e-4,-0.0062 -0.003,-0.02175 -0.006,-0.04345 -0.0103,-0.06511 -0.003,-0.01587 -0.005,-0.03172 -0.008,-0.04754 -0.003,-0.01468 -0.005,-0.0293 -0.008,-0.04393 l -5.3e-4,-0.0026 -0.001,-0.0036 c -0.004,-0.01934 -0.008,-0.03863 -0.0124,-0.05788 -5.3e-4,-0.0028 -0.001,-0.006 -0.002,-0.0088 -0.004,-0.01587 -0.007,-0.03173 -0.0114,-0.04754 -0.002,-0.0074 -0.004,-0.01482 -0.006,-0.02223 -0.004,-0.01587 -0.008,-0.03173 -0.0124,-0.04754 -0.002,-0.0074 -0.004,-0.01482 -0.006,-0.02222 -5.3e-4,-0.0021 -5.3e-4,-0.004 -0.002,-0.0062 -0.006,-0.02093 -0.0121,-0.04176 -0.0186,-0.06253 -0.007,-0.02283 -0.0145,-0.04557 -0.0222,-0.06821 -0.005,-0.01537 -0.0105,-0.03071 -0.016,-0.04599 -5.2e-4,-0.0019 -0.001,-0.0038 -0.002,-0.0057 -0.007,-0.02077 -0.0152,-0.04143 -0.0233,-0.06201 -0.006,-0.0159 -0.0126,-0.03175 -0.0191,-0.04754 -0.003,-0.0064 -0.005,-0.01275 -0.008,-0.01913 -0.003,-0.0071 -0.006,-0.01413 -0.009,-0.02119 -0.006,-0.01503 -0.0129,-0.03003 -0.0196,-0.04496 l -5.3e-4,-0.0021 c -0.006,-0.01418 -0.0129,-0.02831 -0.0196,-0.04238 -0.006,-0.01278 -0.0123,-0.02553 -0.0186,-0.03824 l -0.002,-0.0036 c -0.007,-0.01471 -0.0147,-0.02936 -0.0222,-0.04393 -0.008,-0.01646 -0.017,-0.03281 -0.0258,-0.04909 -0.003,-0.0048 -0.005,-0.0097 -0.008,-0.01447 -0.004,-0.0067 -0.008,-0.01344 -0.0114,-0.02016 -0.005,-0.0099 -0.0109,-0.01966 -0.0165,-0.02946 -0.003,-0.0043 -0.005,-0.0086 -0.008,-0.01291 -0.009,-0.01646 -0.0186,-0.03283 -0.0284,-0.04909 -0.003,-0.0043 -0.005,-0.0086 -0.008,-0.01291 -0.006,-0.0095 -0.012,-0.01897 -0.0181,-0.02842 l -0.0124,-0.01963 -0.001,-0.0016 -6.68589,-10.529588 c -0.51125,-0.806119 -1.40138,-1.292886 -2.35593,-1.287777 z"
       id="path1660" />
  </g>
</svg>
